<svg width="23" height="21" viewBox="0 0 23 21" fill="none" xmlns="http://www.w3.org/2000/svg">
<path d="M1.0002 1H4.8818L6.26458 14.7484C6.32206 15.1273 6.51456 15.4728 6.80665 15.7211C7.09872 15.9693 7.47069 16.1036 7.85399 16.0993H17.8672C18.2139 16.1175 18.5569 16.0216 18.8438 15.8264C19.1308 15.6313 19.346 15.3475 19.4566 15.0186L21.5706 8.66093C21.6494 8.42192 21.6704 8.16758 21.6316 7.9189C21.593 7.67021 21.4957 7.43426 21.348 7.23047C21.1942 7.0138 20.9884 6.83917 20.7496 6.72254C20.5109 6.60593 20.2466 6.55105 19.9812 6.56292H5.43809" stroke="black" stroke-width="1.2" stroke-linecap="round" stroke-linejoin="round"/>
<path d="M18.193 21C17.4251 21 16.8023 20.3772 16.8023 19.6092C16.8023 18.8413 17.4251 18.2185 18.193 18.2185C18.961 18.2185 19.5838 18.8413 19.5838 19.6092C19.5838 20.3772 18.961 21 18.193 21Z" fill="black"/>
<path d="M7.93942 21C7.17132 21 6.54869 20.3772 6.54869 19.6092C6.54869 18.8413 7.17132 18.2185 7.93942 18.2185C8.70749 18.2185 9.33015 18.8413 9.33015 19.6092C9.33015 20.3772 8.70749 21 7.93942 21Z" fill="black"/>
</svg>
